<?xml version="1.0" encoding="utf-8"?>
<!-- Generator: Adobe Illustrator 26.5.0, SVG Export Plug-In . SVG Version: 6.00 Build 0)  -->
<svg version="1.1" id="Layer_1" xmlns="http://www.w3.org/2000/svg" xmlns:xlink="http://www.w3.org/1999/xlink" x="0px" y="0px"
	 viewBox="0 0 24 24" style="enable-background:new 0 0 24 24;" xml:space="preserve">
<style type="text/css">
	.st0{fill:#E5704D;}
	.st1{fill:#28A269;}
	.st2{fill:#FFFFFF;}
	.st3{fill:#9C5251;}
</style>
<rect class="st0" width="24" height="24"/>
<g>
	<g>
		<rect x="1" y="16" width="1" height="1"/>
	</g>
	<g>
		<rect x="6" y="11" class="st0" width="1" height="1"/>
	</g>
	<g>
		<rect x="1" y="18" width="1" height="1"/>
	</g>
	<g>
		<rect x="1" y="17" width="1" height="1"/>
	</g>
	<g>
		<rect x="1" y="15" width="1" height="1"/>
	</g>
	<g>
		<rect x="1" y="19" width="1" height="1"/>
	</g>
	<g>
		<rect x="1" y="14" width="1" height="1"/>
	</g>
	<g>
		<rect x="4" y="11" width="1" height="1"/>
	</g>
	<g>
		<rect x="3" y="11" width="1" height="1"/>
	</g>
	<g>
		<rect x="3" y="12" width="1" height="1"/>
	</g>
	<g>
		<rect x="2" y="12" width="1" height="1"/>
	</g>
	<g>
		<rect x="2" y="13" width="1" height="1"/>
	</g>
	<g>
		<rect x="8" y="10" width="1" height="1"/>
	</g>
	<g>
		<rect x="6" y="10" width="1" height="1"/>
	</g>
	<g>
		<rect x="7" y="10" width="1" height="1"/>
	</g>
	<g>
		<rect x="9" y="10" width="1" height="1"/>
	</g>
	<g>
		<rect x="5" y="10" width="1" height="1"/>
	</g>
	<g>
		<rect x="10" y="10" width="1" height="1"/>
	</g>
	<g>
		<rect x="13" y="13" width="1" height="1"/>
	</g>
	<g>
		<rect x="13" y="12" width="1" height="1"/>
	</g>
	<g>
		<rect x="12" y="12" width="1" height="1"/>
	</g>
	<g>
		<rect x="12" y="11" width="1" height="1"/>
	</g>
	<g>
		<rect x="11" y="11" width="1" height="1"/>
	</g>
	<g>
		<rect x="14" y="17" width="1" height="1"/>
	</g>
	<g>
		<rect x="14" y="15" width="1" height="1"/>
	</g>
	<g>
		<rect x="14" y="16" width="1" height="1"/>
	</g>
	<g>
		<rect x="14" y="18" width="1" height="1"/>
	</g>
	<g>
		<rect x="14" y="14" width="1" height="1"/>
	</g>
	<g>
		<rect x="14" y="19" width="1" height="1"/>
	</g>
	<g>
		<rect x="11" y="22" width="1" height="1"/>
	</g>
	<g>
		<rect x="12" y="22" width="1" height="1"/>
	</g>
	<g>
		<rect x="12" y="21" width="1" height="1"/>
	</g>
	<g>
		<rect x="13" y="21" width="1" height="1"/>
	</g>
	<g>
		<rect x="13" y="20" width="1" height="1"/>
	</g>
	<g>
		<rect x="7" y="23" width="1" height="1"/>
	</g>
	<g>
		<rect x="9" y="23" width="1" height="1"/>
	</g>
	<g>
		<rect x="8" y="23" width="1" height="1"/>
	</g>
	<g>
		<rect x="6" y="23" width="1" height="1"/>
	</g>
	<g>
		<rect x="10" y="23" width="1" height="1"/>
	</g>
	<g>
		<rect x="5" y="23" width="1" height="1"/>
	</g>
	<g>
		<rect x="2" y="20" width="1" height="1"/>
	</g>
	<g>
		<rect x="2" y="21" width="1" height="1"/>
	</g>
	<g>
		<rect x="3" y="21" width="1" height="1"/>
	</g>
	<g>
		<rect x="3" y="22" width="1" height="1"/>
	</g>
	<g>
		<rect x="4" y="22" width="1" height="1"/>
	</g>
	<g>
		<rect x="2" y="19" class="st1" width="1" height="1"/>
	</g>
	<g>
		<rect x="5" y="22" class="st1" width="1" height="1"/>
	</g>
	<g>
		<rect x="10" y="22" class="st1" width="1" height="1"/>
	</g>
	<g>
		<rect x="13" y="19" class="st1" width="1" height="1"/>
	</g>
	<g>
		<rect x="2" y="18" class="st2" width="1" height="1"/>
	</g>
	<g>
		<rect x="6" y="11" class="st0" width="1" height="1"/>
	</g>
	<g>
		<rect x="6" y="11" class="st0" width="1" height="1"/>
	</g>
	<g>
		<rect x="6" y="11" class="st0" width="1" height="1"/>
	</g>
	<g>
		<rect x="13" y="18" class="st2" width="1" height="1"/>
	</g>
	<g>
		<rect x="11" y="19" class="st2" width="1" height="1"/>
	</g>
	<g>
		<rect x="12" y="19" class="st2" width="1" height="1"/>
	</g>
	<g>
		<rect x="4" y="19" class="st2" width="1" height="1"/>
	</g>
	<g>
		<rect x="3" y="19" class="st2" width="1" height="1"/>
	</g>
	<g>
		<rect x="10" y="20" class="st2" width="1" height="1"/>
	</g>
	<g>
		<rect x="9" y="20" class="st2" width="1" height="1"/>
	</g>
	<g>
		<rect x="8" y="20" class="st2" width="1" height="1"/>
	</g>
	<g>
		<rect x="7" y="20" class="st2" width="1" height="1"/>
	</g>
	<g>
		<rect x="6" y="20" class="st2" width="1" height="1"/>
	</g>
	<g>
		<rect x="5" y="20" class="st2" width="1" height="1"/>
	</g>
	<g>
		<rect x="4" y="20" class="st2" width="1" height="1"/>
	</g>
	<g>
		<rect x="3" y="20" class="st2" width="1" height="1"/>
	</g>
	<g>
		<rect x="10" y="21" class="st2" width="1" height="1"/>
	</g>
	<g>
		<rect x="11" y="21" class="st2" width="1" height="1"/>
	</g>
	<g>
		<rect x="11" y="20" class="st2" width="1" height="1"/>
	</g>
	<g>
		<rect x="12" y="20" class="st2" width="1" height="1"/>
	</g>
	<g>
		<rect x="7" y="22" class="st2" width="1" height="1"/>
	</g>
	<g>
		<rect x="7" y="21" class="st2" width="1" height="1"/>
	</g>
	<g>
		<rect x="6" y="22" class="st2" width="1" height="1"/>
	</g>
	<g>
		<rect x="6" y="21" class="st2" width="1" height="1"/>
	</g>
	<g>
		<rect x="5" y="21" class="st2" width="1" height="1"/>
	</g>
	<g>
		<rect x="4" y="21" class="st2" width="1" height="1"/>
	</g>
	<g>
		<rect x="9" y="22" class="st2" width="1" height="1"/>
	</g>
	<g>
		<rect x="9" y="21" class="st2" width="1" height="1"/>
	</g>
	<g>
		<rect x="8" y="22" class="st2" width="1" height="1"/>
	</g>
	<g>
		<rect x="8" y="21" class="st2" width="1" height="1"/>
	</g>
	<g>
		<rect x="4" y="16" class="st2" width="1" height="1"/>
	</g>
	<g>
		<rect x="4" y="17" class="st2" width="1" height="1"/>
	</g>
	<g>
		<rect x="3" y="15" class="st2" width="1" height="1"/>
	</g>
	<g>
		<rect x="3" y="16" class="st2" width="1" height="1"/>
	</g>
	<g>
		<rect x="3" y="17" class="st2" width="1" height="1"/>
	</g>
	<g>
		<rect x="11" y="16" class="st2" width="1" height="1"/>
	</g>
	<g>
		<rect x="11" y="17" class="st2" width="1" height="1"/>
	</g>
	<g>
		<rect x="12" y="15" class="st2" width="1" height="1"/>
	</g>
	<g>
		<rect x="12" y="16" class="st2" width="1" height="1"/>
	</g>
	<g>
		<rect x="12" y="17" class="st2" width="1" height="1"/>
	</g>
	<g>
		<rect x="9" y="17" class="st2" width="1" height="1"/>
	</g>
	<g>
		<rect x="6" y="17" class="st2" width="1" height="1"/>
	</g>
	<g>
		<rect x="3" y="14" width="1" height="1"/>
	</g>
	<g>
		<rect x="4" y="15" width="1" height="1"/>
	</g>
	<g>
		<rect x="6" y="15" width="1" height="1"/>
	</g>
	<g>
		<rect x="6" y="16" width="1" height="1"/>
	</g>
	<g>
		<rect x="5" y="16" width="1" height="1"/>
	</g>
	<g>
		<rect x="5" y="17" width="1" height="1"/>
	</g>
	<g>
		<rect x="12" y="14" width="1" height="1"/>
	</g>
	<g>
		<rect x="11" y="15" width="1" height="1"/>
	</g>
	<g>
		<rect x="9" y="15" width="1" height="1"/>
	</g>
	<g>
		<rect x="10" y="16" width="1" height="1"/>
	</g>
	<g>
		<rect x="10" y="17" width="1" height="1"/>
	</g>
	<g>
		<rect x="9" y="16" width="1" height="1"/>
	</g>
	<g>
		<rect x="10" y="11" class="st3" width="1" height="1"/>
	</g>
	<g>
		<rect x="13" y="14" class="st3" width="1" height="1"/>
	</g>
	<g>
		<rect x="2" y="14" class="st3" width="1" height="1"/>
	</g>
	<g>
		<rect x="5" y="11" class="st3" width="1" height="1"/>
	</g>
	<g>
		<rect x="10" y="12" class="st0" width="1" height="1"/>
	</g>
	<g>
		<rect x="9" y="12" class="st0" width="1" height="1"/>
	</g>
	<g>
		<rect x="8" y="12" class="st0" width="1" height="1"/>
	</g>
	<g>
		<rect x="7" y="12" class="st0" width="1" height="1"/>
	</g>
	<g>
		<rect x="6" y="12" class="st0" width="1" height="1"/>
	</g>
	<g>
		<rect x="5" y="12" class="st0" width="1" height="1"/>
	</g>
	<g>
		<rect x="4" y="12" class="st0" width="1" height="1"/>
	</g>
	<g>
		<rect x="9" y="11" class="st0" width="1" height="1"/>
	</g>
	<g>
		<rect x="8" y="11" class="st0" width="1" height="1"/>
	</g>
	<g>
		<rect x="7" y="11" class="st0" width="1" height="1"/>
	</g>
	<g>
		<rect x="7" y="13" class="st0" width="1" height="1"/>
	</g>
	<g>
		<rect x="5" y="15" class="st0" width="1" height="1"/>
	</g>
	<g>
		<rect x="6" y="14" class="st0" width="1" height="1"/>
	</g>
	<g>
		<rect x="5" y="14" class="st0" width="1" height="1"/>
	</g>
	<g>
		<rect x="4" y="14" class="st0" width="1" height="1"/>
	</g>
	<g>
		<rect x="6" y="13" class="st0" width="1" height="1"/>
	</g>
	<g>
		<rect x="5" y="13" class="st0" width="1" height="1"/>
	</g>
	<g>
		<rect x="4" y="13" class="st0" width="1" height="1"/>
	</g>
	<g>
		<rect x="3" y="13" class="st0" width="1" height="1"/>
	</g>
	<g>
		<rect x="11" y="12" class="st0" width="1" height="1"/>
	</g>
	<g>
		<rect x="5" y="18" class="st0" width="1" height="1"/>
	</g>
	<g>
		<rect x="4" y="18" class="st0" width="1" height="1"/>
	</g>
	<g>
		<rect x="3" y="18" class="st0" width="1" height="1"/>
	</g>
	<g>
		<rect x="7" y="17" class="st0" width="1" height="1"/>
	</g>
	<g>
		<rect x="7" y="16" class="st0" width="1" height="1"/>
	</g>
	<g>
		<rect x="7" y="15" class="st0" width="1" height="1"/>
	</g>
	<g>
		<rect x="2" y="17" class="st0" width="1" height="1"/>
	</g>
	<g>
		<rect x="2" y="16" class="st0" width="1" height="1"/>
	</g>
	<g>
		<rect x="2" y="15" class="st0" width="1" height="1"/>
	</g>
	<g>
		<rect x="7" y="14" class="st0" width="1" height="1"/>
	</g>
	<g>
		<rect x="9" y="14" class="st0" width="1" height="1"/>
	</g>
	<g>
		<rect x="10" y="13" class="st0" width="1" height="1"/>
	</g>
	<g>
		<rect x="11" y="13" class="st0" width="1" height="1"/>
	</g>
	<g>
		<rect x="10" y="14" class="st0" width="1" height="1"/>
	</g>
	<g>
		<rect x="10" y="15" class="st0" width="1" height="1"/>
	</g>
	<g>
		<rect x="11" y="14" class="st0" width="1" height="1"/>
	</g>
	<g>
		<rect x="13" y="17" class="st0" width="1" height="1"/>
	</g>
	<g>
		<rect x="13" y="16" class="st0" width="1" height="1"/>
	</g>
	<g>
		<rect x="13" y="15" class="st0" width="1" height="1"/>
	</g>
	<g>
		<rect x="12" y="13" class="st0" width="1" height="1"/>
	</g>
	<g>
		<rect x="9" y="19" class="st0" width="1" height="1"/>
	</g>
	<g>
		<rect x="10" y="19" class="st0" width="1" height="1"/>
	</g>
	<g>
		<rect x="10" y="18" class="st0" width="1" height="1"/>
	</g>
	<g>
		<rect x="8" y="16" class="st0" width="1" height="1"/>
	</g>
	<g>
		<rect x="8" y="15" class="st0" width="1" height="1"/>
	</g>
	<g>
		<rect x="8" y="14" class="st0" width="1" height="1"/>
	</g>
	<g>
		<rect x="11" y="18" class="st0" width="1" height="1"/>
	</g>
	<g>
		<rect x="12" y="18" class="st0" width="1" height="1"/>
	</g>
	<g>
		<rect x="8" y="13" class="st0" width="1" height="1"/>
	</g>
	<g>
		<rect x="9" y="13" class="st0" width="1" height="1"/>
	</g>
	<g>
		<rect x="6" y="18" class="st0" width="1" height="1"/>
	</g>
	<g>
		<rect x="8" y="19" class="st0" width="1" height="1"/>
	</g>
	<g>
		<rect x="7" y="19" class="st0" width="1" height="1"/>
	</g>
	<g>
		<rect x="6" y="19" class="st0" width="1" height="1"/>
	</g>
	<g>
		<rect x="5" y="19" class="st0" width="1" height="1"/>
	</g>
	<g>
		<rect x="7" y="18" class="st0" width="1" height="1"/>
	</g>
	<g>
		<rect x="8" y="18" class="st0" width="1" height="1"/>
	</g>
	<g>
		<rect x="9" y="18" class="st0" width="1" height="1"/>
	</g>
	<g>
		<rect x="8" y="17" class="st0" width="1" height="1"/>
	</g>
</g>
<rect y="8" class="st2" width="24" height="2"/>
</svg>
