<?xml version="1.0" encoding="utf-8"?>
<!-- Generator: Adobe Illustrator 26.5.0, SVG Export Plug-In . SVG Version: 6.00 Build 0)  -->
<svg version="1.1" id="Layer_1" xmlns="http://www.w3.org/2000/svg" xmlns:xlink="http://www.w3.org/1999/xlink" x="0px" y="0px"
	 viewBox="0 0 14 14" style="enable-background:new 0 0 14 14;" xml:space="preserve">
<style type="text/css">
	.st0{fill:#E5704D;}
	.st1{fill:#28A269;}
	.st2{fill:#FFFFFF;}
	.st3{fill:#9C5251;}
</style>
<g>
	<g>
		<rect y="6" width="1" height="1"/>
	</g>
	<g>
		<rect x="5" y="1" class="st0" width="1" height="1"/>
	</g>
	<g>
		<rect y="8" width="1" height="1"/>
	</g>
	<g>
		<rect y="7" width="1" height="1"/>
	</g>
	<g>
		<rect y="5" width="1" height="1"/>
	</g>
	<g>
		<rect y="9" width="1" height="1"/>
	</g>
	<g>
		<rect y="4" width="1" height="1"/>
	</g>
	<g>
		<rect x="3" y="1" width="1" height="1"/>
	</g>
	<g>
		<rect x="2" y="1" width="1" height="1"/>
	</g>
	<g>
		<rect x="2" y="2" width="1" height="1"/>
	</g>
	<g>
		<rect x="1" y="2" width="1" height="1"/>
	</g>
	<g>
		<rect x="1" y="3" width="1" height="1"/>
	</g>
	<g>
		<rect x="7" width="1" height="1"/>
	</g>
	<g>
		<rect x="5" width="1" height="1"/>
	</g>
	<g>
		<rect x="6" width="1" height="1"/>
	</g>
	<g>
		<rect x="8" width="1" height="1"/>
	</g>
	<g>
		<rect x="4" width="1" height="1"/>
	</g>
	<g>
		<rect x="9" width="1" height="1"/>
	</g>
	<g>
		<rect x="12" y="3" width="1" height="1"/>
	</g>
	<g>
		<rect x="12" y="2" width="1" height="1"/>
	</g>
	<g>
		<rect x="11" y="2" width="1" height="1"/>
	</g>
	<g>
		<rect x="11" y="1" width="1" height="1"/>
	</g>
	<g>
		<rect x="10" y="1" width="1" height="1"/>
	</g>
	<g>
		<rect x="13" y="7" width="1" height="1"/>
	</g>
	<g>
		<rect x="13" y="5" width="1" height="1"/>
	</g>
	<g>
		<rect x="13" y="6" width="1" height="1"/>
	</g>
	<g>
		<rect x="13" y="8" width="1" height="1"/>
	</g>
	<g>
		<rect x="13" y="4" width="1" height="1"/>
	</g>
	<g>
		<rect x="13" y="9" width="1" height="1"/>
	</g>
	<g>
		<rect x="10" y="12" width="1" height="1"/>
	</g>
	<g>
		<rect x="11" y="12" width="1" height="1"/>
	</g>
	<g>
		<rect x="11" y="11" width="1" height="1"/>
	</g>
	<g>
		<rect x="12" y="11" width="1" height="1"/>
	</g>
	<g>
		<rect x="12" y="10" width="1" height="1"/>
	</g>
	<g>
		<rect x="6" y="13" width="1" height="1"/>
	</g>
	<g>
		<rect x="8" y="13" width="1" height="1"/>
	</g>
	<g>
		<rect x="7" y="13" width="1" height="1"/>
	</g>
	<g>
		<rect x="5" y="13" width="1" height="1"/>
	</g>
	<g>
		<rect x="9" y="13" width="1" height="1"/>
	</g>
	<g>
		<rect x="4" y="13" width="1" height="1"/>
	</g>
	<g>
		<rect x="1" y="10" width="1" height="1"/>
	</g>
	<g>
		<rect x="1" y="11" width="1" height="1"/>
	</g>
	<g>
		<rect x="2" y="11" width="1" height="1"/>
	</g>
	<g>
		<rect x="2" y="12" width="1" height="1"/>
	</g>
	<g>
		<rect x="3" y="12" width="1" height="1"/>
	</g>
	<g>
		<rect x="1" y="9" class="st1" width="1" height="1"/>
	</g>
	<g>
		<rect x="4" y="12" class="st1" width="1" height="1"/>
	</g>
	<g>
		<rect x="9" y="12" class="st1" width="1" height="1"/>
	</g>
	<g>
		<rect x="12" y="9" class="st1" width="1" height="1"/>
	</g>
	<g>
		<rect x="1" y="8" class="st2" width="1" height="1"/>
	</g>
	<g>
		<rect x="5" y="1" class="st0" width="1" height="1"/>
	</g>
	<g>
		<rect x="5" y="1" class="st0" width="1" height="1"/>
	</g>
	<g>
		<rect x="5" y="1" class="st0" width="1" height="1"/>
	</g>
	<g>
		<rect x="12" y="8" class="st2" width="1" height="1"/>
	</g>
	<g>
		<rect x="10" y="9" class="st2" width="1" height="1"/>
	</g>
	<g>
		<rect x="11" y="9" class="st2" width="1" height="1"/>
	</g>
	<g>
		<rect x="3" y="9" class="st2" width="1" height="1"/>
	</g>
	<g>
		<rect x="2" y="9" class="st2" width="1" height="1"/>
	</g>
	<g>
		<rect x="9" y="10" class="st2" width="1" height="1"/>
	</g>
	<g>
		<rect x="8" y="10" class="st2" width="1" height="1"/>
	</g>
	<g>
		<rect x="7" y="10" class="st2" width="1" height="1"/>
	</g>
	<g>
		<rect x="6" y="10" class="st2" width="1" height="1"/>
	</g>
	<g>
		<rect x="5" y="10" class="st2" width="1" height="1"/>
	</g>
	<g>
		<rect x="4" y="10" class="st2" width="1" height="1"/>
	</g>
	<g>
		<rect x="3" y="10" class="st2" width="1" height="1"/>
	</g>
	<g>
		<rect x="2" y="10" class="st2" width="1" height="1"/>
	</g>
	<g>
		<rect x="9" y="11" class="st2" width="1" height="1"/>
	</g>
	<g>
		<rect x="10" y="11" class="st2" width="1" height="1"/>
	</g>
	<g>
		<rect x="10" y="10" class="st2" width="1" height="1"/>
	</g>
	<g>
		<rect x="11" y="10" class="st2" width="1" height="1"/>
	</g>
	<g>
		<rect x="6" y="12" class="st2" width="1" height="1"/>
	</g>
	<g>
		<rect x="6" y="11" class="st2" width="1" height="1"/>
	</g>
	<g>
		<rect x="5" y="12" class="st2" width="1" height="1"/>
	</g>
	<g>
		<rect x="5" y="11" class="st2" width="1" height="1"/>
	</g>
	<g>
		<rect x="4" y="11" class="st2" width="1" height="1"/>
	</g>
	<g>
		<rect x="3" y="11" class="st2" width="1" height="1"/>
	</g>
	<g>
		<rect x="8" y="12" class="st2" width="1" height="1"/>
	</g>
	<g>
		<rect x="8" y="11" class="st2" width="1" height="1"/>
	</g>
	<g>
		<rect x="7" y="12" class="st2" width="1" height="1"/>
	</g>
	<g>
		<rect x="7" y="11" class="st2" width="1" height="1"/>
	</g>
	<g>
		<rect x="3" y="6" class="st2" width="1" height="1"/>
	</g>
	<g>
		<rect x="3" y="7" class="st2" width="1" height="1"/>
	</g>
	<g>
		<rect x="2" y="5" class="st2" width="1" height="1"/>
	</g>
	<g>
		<rect x="2" y="6" class="st2" width="1" height="1"/>
	</g>
	<g>
		<rect x="2" y="7" class="st2" width="1" height="1"/>
	</g>
	<g>
		<rect x="10" y="6" class="st2" width="1" height="1"/>
	</g>
	<g>
		<rect x="10" y="7" class="st2" width="1" height="1"/>
	</g>
	<g>
		<rect x="11" y="5" class="st2" width="1" height="1"/>
	</g>
	<g>
		<rect x="11" y="6" class="st2" width="1" height="1"/>
	</g>
	<g>
		<rect x="11" y="7" class="st2" width="1" height="1"/>
	</g>
	<g>
		<rect x="8" y="7" class="st2" width="1" height="1"/>
	</g>
	<g>
		<rect x="5" y="7" class="st2" width="1" height="1"/>
	</g>
	<g>
		<rect x="2" y="4" width="1" height="1"/>
	</g>
	<g>
		<rect x="3" y="5" width="1" height="1"/>
	</g>
	<g>
		<rect x="5" y="5" width="1" height="1"/>
	</g>
	<g>
		<rect x="5" y="6" width="1" height="1"/>
	</g>
	<g>
		<rect x="4" y="6" width="1" height="1"/>
	</g>
	<g>
		<rect x="4" y="7" width="1" height="1"/>
	</g>
	<g>
		<rect x="11" y="4" width="1" height="1"/>
	</g>
	<g>
		<rect x="10" y="5" width="1" height="1"/>
	</g>
	<g>
		<rect x="8" y="5" width="1" height="1"/>
	</g>
	<g>
		<rect x="9" y="6" width="1" height="1"/>
	</g>
	<g>
		<rect x="9" y="7" width="1" height="1"/>
	</g>
	<g>
		<rect x="8" y="6" width="1" height="1"/>
	</g>
	<g>
		<rect x="9" y="1" class="st3" width="1" height="1"/>
	</g>
	<g>
		<rect x="12" y="4" class="st3" width="1" height="1"/>
	</g>
	<g>
		<rect x="1" y="4" class="st3" width="1" height="1"/>
	</g>
	<g>
		<rect x="4" y="1" class="st3" width="1" height="1"/>
	</g>
	<g>
		<rect x="9" y="2" class="st0" width="1" height="1"/>
	</g>
	<g>
		<rect x="8" y="2" class="st0" width="1" height="1"/>
	</g>
	<g>
		<rect x="7" y="2" class="st0" width="1" height="1"/>
	</g>
	<g>
		<rect x="6" y="2" class="st0" width="1" height="1"/>
	</g>
	<g>
		<rect x="5" y="2" class="st0" width="1" height="1"/>
	</g>
	<g>
		<rect x="4" y="2" class="st0" width="1" height="1"/>
	</g>
	<g>
		<rect x="3" y="2" class="st0" width="1" height="1"/>
	</g>
	<g>
		<rect x="8" y="1" class="st0" width="1" height="1"/>
	</g>
	<g>
		<rect x="7" y="1" class="st0" width="1" height="1"/>
	</g>
	<g>
		<rect x="6" y="1" class="st0" width="1" height="1"/>
	</g>
	<g>
		<rect x="6" y="3" class="st0" width="1" height="1"/>
	</g>
	<g>
		<rect x="4" y="5" class="st0" width="1" height="1"/>
	</g>
	<g>
		<rect x="5" y="4" class="st0" width="1" height="1"/>
	</g>
	<g>
		<rect x="4" y="4" class="st0" width="1" height="1"/>
	</g>
	<g>
		<rect x="3" y="4" class="st0" width="1" height="1"/>
	</g>
	<g>
		<rect x="5" y="3" class="st0" width="1" height="1"/>
	</g>
	<g>
		<rect x="4" y="3" class="st0" width="1" height="1"/>
	</g>
	<g>
		<rect x="3" y="3" class="st0" width="1" height="1"/>
	</g>
	<g>
		<rect x="2" y="3" class="st0" width="1" height="1"/>
	</g>
	<g>
		<rect x="10" y="2" class="st0" width="1" height="1"/>
	</g>
	<g>
		<rect x="4" y="8" class="st0" width="1" height="1"/>
	</g>
	<g>
		<rect x="3" y="8" class="st0" width="1" height="1"/>
	</g>
	<g>
		<rect x="2" y="8" class="st0" width="1" height="1"/>
	</g>
	<g>
		<rect x="6" y="7" class="st0" width="1" height="1"/>
	</g>
	<g>
		<rect x="6" y="6" class="st0" width="1" height="1"/>
	</g>
	<g>
		<rect x="6" y="5" class="st0" width="1" height="1"/>
	</g>
	<g>
		<rect x="1" y="7" class="st0" width="1" height="1"/>
	</g>
	<g>
		<rect x="1" y="6" class="st0" width="1" height="1"/>
	</g>
	<g>
		<rect x="1" y="5" class="st0" width="1" height="1"/>
	</g>
	<g>
		<rect x="6" y="4" class="st0" width="1" height="1"/>
	</g>
	<g>
		<rect x="8" y="4" class="st0" width="1" height="1"/>
	</g>
	<g>
		<rect x="9" y="3" class="st0" width="1" height="1"/>
	</g>
	<g>
		<rect x="10" y="3" class="st0" width="1" height="1"/>
	</g>
	<g>
		<rect x="9" y="4" class="st0" width="1" height="1"/>
	</g>
	<g>
		<rect x="9" y="5" class="st0" width="1" height="1"/>
	</g>
	<g>
		<rect x="10" y="4" class="st0" width="1" height="1"/>
	</g>
	<g>
		<rect x="12" y="7" class="st0" width="1" height="1"/>
	</g>
	<g>
		<rect x="12" y="6" class="st0" width="1" height="1"/>
	</g>
	<g>
		<rect x="12" y="5" class="st0" width="1" height="1"/>
	</g>
	<g>
		<rect x="11" y="3" class="st0" width="1" height="1"/>
	</g>
	<g>
		<rect x="8" y="9" class="st0" width="1" height="1"/>
	</g>
	<g>
		<rect x="9" y="9" class="st0" width="1" height="1"/>
	</g>
	<g>
		<rect x="9" y="8" class="st0" width="1" height="1"/>
	</g>
	<g>
		<rect x="7" y="6" class="st0" width="1" height="1"/>
	</g>
	<g>
		<rect x="7" y="5" class="st0" width="1" height="1"/>
	</g>
	<g>
		<rect x="7" y="4" class="st0" width="1" height="1"/>
	</g>
	<g>
		<rect x="10" y="8" class="st0" width="1" height="1"/>
	</g>
	<g>
		<rect x="11" y="8" class="st0" width="1" height="1"/>
	</g>
	<g>
		<rect x="7" y="3" class="st0" width="1" height="1"/>
	</g>
	<g>
		<rect x="8" y="3" class="st0" width="1" height="1"/>
	</g>
	<g>
		<rect x="5" y="8" class="st0" width="1" height="1"/>
	</g>
	<g>
		<rect x="7" y="9" class="st0" width="1" height="1"/>
	</g>
	<g>
		<rect x="6" y="9" class="st0" width="1" height="1"/>
	</g>
	<g>
		<rect x="5" y="9" class="st0" width="1" height="1"/>
	</g>
	<g>
		<rect x="4" y="9" class="st0" width="1" height="1"/>
	</g>
	<g>
		<rect x="6" y="8" class="st0" width="1" height="1"/>
	</g>
	<g>
		<rect x="7" y="8" class="st0" width="1" height="1"/>
	</g>
	<g>
		<rect x="8" y="8" class="st0" width="1" height="1"/>
	</g>
	<g>
		<rect x="7" y="7" class="st0" width="1" height="1"/>
	</g>
</g>
</svg>
